<svg xmlns="http://www.w3.org/2000/svg" viewBox="0 0 610.16 289.43"><defs><style>.cls-1{fill:#F0EEE1;}</style></defs><title>Fichier 13</title><g id="Calque_2" data-name="Calque 2"><g id="Calque_1-2" data-name="Calque 1"><path class="cls-1" d="M178.66,119.93h47.45v6.12H172.53V40.58h6.13Z"/><path class="cls-1" d="M348.24,125.88H341L290.84,52.71v73.34h-6.1V40.6h6.09l51.27,74.61V40.6h6.14Z"/><path class="cls-1" d="M123.44,85H97.68v35h46.23v6.14H91.36V40.49h52.53v6.16H97.66V78.86h25.78Z"/><path class="cls-1" d="M413.15,85H387.39v35h46.23v6.14H381.07V40.49H433.6v6.16H387.37V78.86h25.78Z"/><path class="cls-1" d="M63.17,99.24q-1.47,13.4-9.59,20.51t-21.65,7.11a30,30,0,0,1-16.69-4.72A30.78,30.78,0,0,1,4,108.76,47.67,47.67,0,0,1,0,89V78a48.12,48.12,0,0,1,4-20A30.54,30.54,0,0,1,15.35,44.43a31.15,31.15,0,0,1,17.11-4.75Q46.1,39.68,54,47t9.18,20.33H55.94Q53.26,45.75,32.46,45.74q-11.54,0-18.39,8.64T7.23,78.23V88.61q0,14.69,6.67,23.44t18,8.75q11.25,0,17-5.39t7-16.17Z"/><rect class="cls-1" x="251.12" width="6.11" height="289.43"/><path class="cls-1" d="M129.19,172.31H100v79.36H92.76V172.31H63.59v-6.09h65.6Z"/><path class="cls-1" d="M196.17,215.84H166.84V251.6h-7.26V166.11h32.26q13.65,0,21.32,6.62t7.67,18.48a23.09,23.09,0,0,1-4.8,14.45,24.53,24.53,0,0,1-12.89,8.66l21.8,37.35h-8.23Zm-29.33-6.09h26.64q9.08,0,14.58-5.16a17.51,17.51,0,0,0,5.51-13.38q0-9-5.74-14t-16.11-5H166.84Z"/><path class="cls-1" d="M426.7,227.5H388l-8.79,24.17h-7.56l32.28-85.49h6.85l32.28,85.49h-7.5Zm-36.49-6.09h34.21L407.32,175Z"/><path class="cls-1" d="M610.16,172.48H580.94v79.19h-7.21V172.48H544.56v-6.1h65.6Z"/><path class="cls-1" d="M501.3,215.84H472V251.6H464.7V166.11H497q13.65,0,21.32,6.62T526,191.21a23,23,0,0,1-4.81,14.45,24.5,24.5,0,0,1-12.88,8.66l21.79,37.35h-8.23ZM472,209.75H498.6q9.09,0,14.59-5.16a17.5,17.5,0,0,0,5.5-13.38q0-9-5.74-14t-16.1-5H472Z"/><path class="cls-1" d="M348.12,224.48q-1.33,13.41-9.39,20.6t-21.58,7.32a30,30,0,0,1-16.73-4.55,30.76,30.76,0,0,1-11.35-13.27,47.56,47.56,0,0,1-4.22-19.74l-.1-11a48,48,0,0,1,3.76-20.08,30.39,30.39,0,0,1,11.26-13.6,31,31,0,0,1,17.06-4.92q13.62-.14,21.6,7.13t9.37,20.24l-7.22.08q-2.9-21.6-23.7-21.39-11.53.11-18.29,8.81T292,204l.1,10.38q.15,14.68,6.91,23.37t18.12,8.57q11.23-.1,16.9-5.55t6.89-16.24Z"/><polygon class="cls-1" points="143.91 6.88 143.91 0.73 91.38 0.73 91.38 7.07 143.91 6.88"/></g></g></svg>