<svg xmlns="http://www.w3.org/2000/svg" viewBox="0 0 1021.34 162.7">
<defs>
    <style>.cls-1{fill:#F0EEE1;}</style>
</defs>
<title>Fichier 1</title>
<g id="Calque_2" data-name="Calque 2"><g id="Calque_1-2" data-name="Calque 1"><path class="cls-1" d="M177.8,117.67h46.75v6H171.76V39.49h6Z"/><path class="cls-1" d="M254.14,162.7h-6V1.72h6Z"/><path class="cls-1" d="M347.62,123.53h-7.1L291.08,51.44v72.25h-6V39.51h6L341.58,113V39.51h6Z"/><path class="cls-1" d="M122.91,83.25H97.53v34.44h45.55v6H91.31V39.45h51.74v6.06H97.51V77.25h25.4Z"/><path class="cls-1" d="M406.81,83.25H381.43v34.44H427v6H375.21V39.45H427v6.06H381.41V77.25h25.4Z"/><path class="cls-1" d="M62.23,97.31q-1.44,13.22-9.45,20.21t-21.32,7A29.58,29.58,0,0,1,15,119.88,30.42,30.42,0,0,1,4,106.7,47,47,0,0,1,0,87.21V76.36A47.38,47.38,0,0,1,3.9,56.62,30,30,0,0,1,15.13,43.33,30.58,30.58,0,0,1,32,38.65q13.43,0,21.21,7.23t9,20H55.11Q52.47,44.63,32,44.62q-11.37,0-18.12,8.5T7.12,76.62V86.84q0,14.47,6.57,23.1t17.77,8.61q11.07,0,16.7-5.31t7-15.93Z"/><path class="cls-1" d="M677.33,161.72h-6V0h6Z"/><path class="cls-1" d="M554,45.51h-28.8v78.18h-7.09V45.51H489.34v-6H554Z"/><path class="cls-1" d="M616.72,88.5H587.83v35.23h-7.16V39.51h31.78q13.45,0,21,6.52T641,64.24a22.79,22.79,0,0,1-4.73,14.24A24.26,24.26,0,0,1,623.59,87l21.47,36.79H637Zm-28.89-6h26.24q8.94,0,14.37-5.08a17.27,17.27,0,0,0,5.42-13.18q0-8.89-5.65-13.81t-15.87-4.92H587.83Z"/><path class="cls-1" d="M837.93,99.93H799.79l-8.66,23.8h-7.44l31.79-84.22h6.76L854,123.73h-7.39Zm-35.95-6h33.7L818.83,48.17Z"/><path class="cls-1" d="M1021.34,45.51h-28.8v78h-7.1v-78H956.71v-6h64.63Z"/><path class="cls-1" d="M917.67,88.5H888.78v35.23h-7.16V39.51H913.4q13.46,0,21,6.52T942,64.24a22.79,22.79,0,0,1-4.73,14.24A24.26,24.26,0,0,1,924.54,87L946,123.8H937.9Zm-28.89-6H915q8.94,0,14.37-5.08a17.27,17.27,0,0,0,5.42-13.18q0-8.89-5.65-13.81t-15.87-4.92H888.78Z"/><path class="cls-1" d="M764.26,97Q763,110.23,755,117.31t-21.25,7.21a29.55,29.55,0,0,1-16.5-4.49A30.29,30.29,0,0,1,706.09,107a46.91,46.91,0,0,1-4.16-19.45l-.1-10.85a47.2,47.2,0,0,1,3.71-19.79,30,30,0,0,1,11.09-13.4,30.64,30.64,0,0,1,16.8-4.84q13.43-.14,21.28,7T764,65.61l-7.12.07Q754,44.41,733.49,44.61q-11.37.12-18,8.68T709,76.85l.1,10.23q.13,14.48,6.8,23t17.85,8.44q11.07-.1,16.65-5.47t6.79-16Z"/><polygon class="cls-1" points="143.05 7.78 143.05 1.72 91.31 1.72 91.31 7.97 143.05 7.78"/></g></g></svg>